<svg width="24" height="24" xmlns="http://www.w3.org/2000/svg">

 <g>
  <title>background</title>
  <rect fill="none" id="canvas_background" height="602" width="802" y="-1" x="-1"/>
 </g>
 <g>
  <title>Layer 1</title>
  <path id="svg_1" fill="#ffffff" d="m16.2426,6.34311l-9.89951,9.89949c-0.39052,0.3905 -0.39052,1.0237 0,1.4142c0.39053,0.3905 1.02369,0.3905 1.41422,0l9.89949,-9.89948c0.3905,-0.39053 0.3905,-1.02369 0,-1.41421c-0.3905,-0.39053 -1.0237,-0.39053 -1.4142,0z"/>
  <path id="svg_2" fill="#ffffff" d="m17.6568,16.2426l-9.89946,-9.89951c-0.39053,-0.39052 -1.02369,-0.39052 -1.41421,0c-0.39053,0.39053 -0.39053,1.02369 0,1.41422l9.89947,9.89949c0.3905,0.3905 1.0237,0.3905 1.4142,0c0.3906,-0.3905 0.3906,-1.0237 0,-1.4142z"/>
 </g>
</svg>