<svg width="24" height="24" xmlns="http://www.w3.org/2000/svg">

 <g>
  <title>background</title>
  <rect fill="none" id="canvas_background" height="602" width="802" y="-1" x="-1"/>
 </g>
 <g>
  <title>Layer 1</title>
  <path id="svg_1" fill="#ffffff" d="m3,17c0,0.5523 0.44772,1 1,1l16,0c0.5523,0 1,-0.4477 1,-1l0,0c0,-0.5523 -0.4477,-1 -1,-1l-16,0c-0.55228,0 -1,0.4477 -1,1l0,0zm0,-5c0,0.5523 0.44772,1 1,1l16,0c0.5523,0 1,-0.4477 1,-1l0,0c0,-0.5523 -0.4477,-1 -1,-1l-16,0c-0.55228,0 -1,0.4477 -1,1l0,0zm1,-6c-0.55228,0 -1,0.44772 -1,1l0,0c0,0.55228 0.44772,1 1,1l16,0c0.5523,0 1,-0.44772 1,-1l0,0c0,-0.55228 -0.4477,-1 -1,-1l-16,0z"/>
 </g>
</svg>