<?xml version="1.0" encoding="utf-8"?>
<!-- Generator: Adobe Illustrator 21.0.0, SVG Export Plug-In . SVG Version: 6.00 Build 0)  -->
<!DOCTYPE svg PUBLIC "-//W3C//DTD SVG 1.1//EN" "http://www.w3.org/Graphics/SVG/1.1/DTD/svg11.dtd">
<svg version="1.1" id="Layer_1" xmlns="http://www.w3.org/2000/svg" xmlns:xlink="http://www.w3.org/1999/xlink" x="0px" y="0px"
	 viewBox="0 0 768 768" style="enable-background:new 0 0 768 768;" xml:space="preserve">
<style type="text/css">
	.st0{fill:#37405F;}
	.st1{fill:#FFFFFF;}
</style>
<rect x="-0.3" class="st0" width="768" height="768"/>
<g>
	<polygon class="st1" points="611.2,379.8 588.6,379.8 588.6,556.4 611.2,556.4 686.8,468.1 	"/>
	<path class="st1" d="M566.1,330.5c0-107.9-75.6-198-176.8-220.4l-0.1-0.1v0.1c-15.8-3.5-32.1-5.4-49-5.4
		c-124.7,0-225.8,101.1-225.8,225.8s101.1,225.8,225.8,225.8c9,0,17.8-0.6,26.5-1.6c0-57.5,0-115.2,0-175.4c-10.8,0-21,0.7-31.2-0.1
		c-25.4-2-43.7-21.8-44.3-47c-0.6-25,16.8-46.1,41.5-50.1c23.6-3.9,47.9,11.8,53.9,36c2.3,9.2,2.5,19.1,2.6,28.6
		c0.1,69.9,0,139.7,0.1,209.6h0.2v22.7v9.3v13.2l88.3,75.7l88.3-75.7v-13.2v-9.3v-35.9h-0.2V337.8C566,335.4,566.1,333,566.1,330.5z
		"/>
</g>
</svg>
