<svg width="50" height="50" xmlns="http://www.w3.org/2000/svg">
 <style type="text/css">.st0{fill:#37405F;}
	.st1{fill:#FFFFFF;}</style>

 <g>
  <title>background</title>
  <rect fill="none" id="canvas_background" height="52" width="52" y="-1" x="-1"/>
 </g>
 <g>
  <title>Layer 1</title>
  <g stroke="null" id="svg_1">
   <circle stroke="null" id="svg_2" r="24.8125" cy="24.86248" cx="24.98748" class="st0"/>
   <g stroke="null" id="svg_3">
    <polygon stroke="null" id="svg_4" points="38.05925787031083,25.327713216990333 36.78633004299081,25.327713216990333 36.78633004299081,35.31731847823971 38.05925787031083,35.31731847823971 42.34329084703131,30.322515847615023 " class="st1"/>
    <path stroke="null" id="svg_5" d="m35.5134,22.54277c0,-6.09974 -4.27757,-11.20439 -10.00254,-12.47086l-0.00646,-0.00646l0,0.00646c-0.8917,-0.20031 -1.81571,-0.30369 -2.77202,-0.30369c-7.05605,0 -12.77456,5.71851 -12.77456,12.77456s5.71851,12.77456 12.77456,12.77456c0.504,0 1.00801,-0.03231 1.49909,-0.09046c0,-3.25664 0,-6.51974 0,-9.925c-0.61385,0 -1.18893,0.03877 -1.76401,-0.00646c-1.43447,-0.11631 -2.47479,-1.23416 -2.5071,-2.65571c-0.03231,-1.41509 0.94985,-2.60402 2.34556,-2.83664c1.33755,-0.21969 2.71387,0.67201 3.04987,2.0354c0.12923,0.52339 0.14215,1.07909 0.14215,1.62186c0.00646,3.95449 0,7.90252 0.00646,11.85701l0.01292,0l0,1.28586l0,0.52985l0,0.74954l4.99481,4.27757l4.99481,-4.27757l0,-0.74954l0,-0.52985l0,-2.0354l-0.00646,0l0,-11.61147c0.00646,-0.14215 0.01292,-0.27785 0.01292,-0.41354z" class="st1"/>
   </g>
  </g>
 </g>
</svg>