<?xml version="1.0" standalone="no"?>
<!DOCTYPE svg PUBLIC "-//W3C//DTD SVG 20010904//EN"
 "http://www.w3.org/TR/2001/REC-SVG-20010904/DTD/svg10.dtd">
<svg version="1.0" xmlns="http://www.w3.org/2000/svg"
 width="700.000000pt" height="700.000000pt" viewBox="0 0 700.000000 700.000000"
 preserveAspectRatio="xMidYMid meet">
<metadata>
Created by potrace 1.11, written by Peter Selinger 2001-2013
</metadata>
<g transform="translate(0.000000,700.000000) scale(0.100000,-0.100000)"
fill="#000000" stroke="none">
<path d="M3249 6995 c-2 -2 -40 -6 -84 -10 -44 -3 -89 -8 -100 -10 -11 -2 -42
-7 -70 -10 -89 -10 -345 -65 -467 -101 -238 -68 -586 -216 -763 -324 -27 -16
-58 -33 -67 -36 -10 -4 -18 -10 -18 -15 0 -5 -5 -9 -11 -9 -15 0 -142 -86
-274 -185 -590 -443 -1029 -1073 -1244 -1785 -44 -143 -106 -432 -117 -540 -3
-36 -8 -67 -9 -70 -8 -14 -19 -243 -19 -395 0 -216 13 -394 38 -540 3 -17 12
-68 20 -115 8 -47 31 -148 51 -224 235 -916 839 -1702 1672 -2175 109 -62 356
-181 376 -181 7 0 17 -4 22 -8 31 -27 392 -142 555 -176 100 -22 242 -47 294
-52 33 -4 63 -8 66 -9 14 -8 235 -19 390 -19 159 -1 346 8 410 18 14 3 45 7
70 10 114 15 142 19 250 42 139 29 300 74 435 121 188 65 502 210 605 279 19
13 38 24 43 24 4 0 13 5 20 10 7 6 64 45 127 86 386 255 765 641 1000 1018
172 277 294 535 385 816 51 160 113 423 129 550 3 19 10 76 17 125 21 148 18
700 -5 835 -3 14 -7 43 -10 65 -9 70 -17 118 -33 190 -8 39 -17 81 -19 95 -19
97 -115 408 -149 485 -8 17 -26 59 -40 95 -66 161 -193 396 -298 555 -147 221
-260 358 -457 555 -227 228 -458 404 -740 567 -87 50 -280 145 -360 177 -36
15 -74 31 -85 36 -151 67 -516 166 -715 195 -24 4 -47 8 -50 10 -3 2 -36 6
-75 10 -38 3 -83 8 -100 11 -35 6 -591 15 -596 9z"/>
</g>
</svg>
