<?xml version="1.0" encoding="utf-8"?>
<!-- Generator: Adobe Illustrator 21.0.0, SVG Export Plug-In . SVG Version: 6.00 Build 0)  -->
<!DOCTYPE svg PUBLIC "-//W3C//DTD SVG 1.1//EN" "http://www.w3.org/Graphics/SVG/1.1/DTD/svg11.dtd">
<svg version="1.1" id="Layer_1" xmlns="http://www.w3.org/2000/svg" xmlns:xlink="http://www.w3.org/1999/xlink" x="0px" y="0px"
	 viewBox="0 0 768 768" style="enable-background:new 0 0 768 768;" xml:space="preserve">
<style type="text/css">
	.st0{fill:#37405F;}
	.st1{fill:#FFFFFF;}
</style>
<g>
	<circle class="st0" cx="384.3" cy="383.8" r="384"/>
	<g>
		<polygon class="st1" points="586.6,391 566.9,391 566.9,545.6 586.6,545.6 652.9,468.3 		"/>
		<path class="st1" d="M547.2,347.9c0-94.4-66.2-173.4-154.8-193l-0.1-0.1v0.1c-13.8-3.1-28.1-4.7-42.9-4.7
			c-109.2,0-197.7,88.5-197.7,197.7s88.5,197.7,197.7,197.7c7.8,0,15.6-0.5,23.2-1.4c0-50.4,0-100.9,0-153.6
			c-9.5,0-18.4,0.6-27.3-0.1c-22.2-1.8-38.3-19.1-38.8-41.1c-0.5-21.9,14.7-40.3,36.3-43.9c20.7-3.4,42,10.4,47.2,31.5
			c2,8.1,2.2,16.7,2.2,25.1c0.1,61.2,0,122.3,0.1,183.5h0.2v19.9v8.2v11.6l77.3,66.2l77.3-66.2v-11.6v-8.2V534H547V354.3
			C547.1,352.1,547.2,350,547.2,347.9z"/>
	</g>
</g>
</svg>
